<?xml version="1.0" encoding="UTF-8"?>
<svg width="134px" height="26px" viewBox="0 0 134 26" version="1.1" xmlns="http://www.w3.org/2000/svg" xmlns:xlink="http://www.w3.org/1999/xlink">
    <!-- Generator: Sketch 46.2 (44496) - http://www.bohemiancoding.com/sketch -->
    <title>awaymo-white</title>
    <desc>Created with Sketch.</desc>
    <defs>
        <path d="M52.3397081,19.4430278 C52.9475144,19.4274868 53.4750161,19.3491467 53.9223444,19.2078764 C54.4248444,19.0491236 54.8613681,18.8154611 55.2316361,18.5068889 C55.6019972,18.1983167 55.9194097,17.8191153 56.1839667,17.3694708 C56.4484306,16.9197333 56.6953069,16.4039264 56.9245958,15.82205 L62.9291917,0.400511111 L59.6226486,0.400511111 L56.4748583,9.63227361 L56.4220028,9.63227361 L52.8774236,0.400511111 L49.3593653,0.400511111 L54.8084194,13.0974764 L54.1735944,14.7110597 C54.0325222,15.0460597 53.9002903,15.3370444 53.7768056,15.5839208 C53.6533208,15.8307972 53.5122486,16.0380319 53.3535889,16.2055319 C53.1948361,16.373125 53.0009083,16.4965167 52.7716194,16.5758931 C52.5424236,16.6552694 52.2602792,16.6949111 51.9251861,16.6949111 C51.7488458,16.6949111 51.5592917,16.6816972 51.3564306,16.6552694 C51.1536625,16.6288417 50.9464278,16.5803597 50.7348194,16.5097306 L50.4703556,19.2607319 C50.7525,19.3313611 51.0301778,19.3798431 51.303575,19.4062708 C51.5031529,19.4255695 51.7003985,19.4378218 51.895312,19.4430278 L52.3397081,19.4430278 L52.3397081,19.4430278 Z M8.782025,11.4838931 L8.70264861,11.4838931 C8.38523611,12.0481819 7.87389583,12.5111333 7.16844167,12.8726542 C6.46308056,13.234175 5.66075556,13.4148889 4.76137361,13.4148889 C4.24994028,13.4148889 3.71645278,13.3487264 3.16100417,13.2164944 C2.60555556,13.0842625 2.09412222,12.8638139 1.62679722,12.5552417 C1.15947222,12.2465764 0.771523611,11.8410403 0.462951389,11.3384472 C0.154286111,10.8358542 0,10.2142431 0,9.47352083 C0,8.52128333 0.268930556,7.76297361 0.806791667,7.19868472 C1.34465278,6.63439583 2.0368,6.20233889 2.88323333,5.90251389 C3.72975972,5.60278194 4.66878333,5.4043875 5.70039722,5.30733056 C6.73201111,5.21036667 7.74157083,5.16188472 8.72916944,5.16188472 L8.72916944,4.84447222 C8.72916944,4.05089444 8.44255833,3.46455139 7.86942917,3.08544306 C7.2963,2.70624167 6.61299306,2.5166875 5.81941528,2.5166875 C5.14932222,2.5166875 4.50565694,2.65775972 3.88841944,2.93990417 C3.27118194,3.22204861 2.75984167,3.56598194 2.3542125,3.97151806 L0.714201389,2.04052222 C1.43724306,1.37042917 2.2704625,0.867836111 3.21395278,0.532836111 C4.15735,0.197743056 5.11405417,0.0302430556 6.08397222,0.0302430556 C7.21255,0.0302430556 8.14282639,0.188902778 8.87461528,0.506315278 C9.60649722,0.823727778 10.184,1.23819722 10.6072167,1.74963056 C11.0304333,2.26097083 11.3258847,2.8341 11.4933847,3.468925 C11.6608847,4.10384306 11.7446347,4.73866806 11.7446347,5.37349306 L11.7446347,13.0974764 L8.782025,13.0974764 L8.782025,11.4838931 Z M8.72916944,7.30448889 L8.01496806,7.30448889 C7.50353472,7.30448889 6.96567361,7.32654306 6.40138472,7.37065139 C5.83709583,7.41475972 5.31682222,7.51172361 4.84075,7.66163611 C4.36458472,7.81145556 3.96779583,8.02306389 3.65038333,8.29646111 C3.33297083,8.56976528 3.17421806,8.9445 3.17421806,9.42066528 C3.17421806,9.72049028 3.24038056,9.97174028 3.3726125,10.1745083 C3.50484444,10.3773694 3.67681111,10.5404958 3.88841944,10.6638875 C4.10002778,10.7873722 4.33815694,10.8754958 4.60262083,10.9284444 C4.86717778,10.9813 5.13164167,11.0077278 5.39619861,11.0077278 C6.48950833,11.0077278 7.31835417,10.7168361 7.88264306,10.1348667 C8.447025,9.55289722 8.72916944,8.75931944 8.72916944,7.75422639 L8.72916944,7.30448889 Z M13.6492028,0.400511111 L17.0879778,0.400511111 L19.733175,9.50004167 L19.7860306,9.50004167 L22.5106042,0.400511111 L25.8964306,0.400511111 L28.6474319,9.50004167 L28.7003806,9.50004167 L31.3984333,0.400511111 L34.7049764,0.400511111 L30.3139639,13.0974764 L27.0867972,13.0974764 L24.2035639,4.20964722 L24.1506153,4.20964722 L21.2938097,13.0974764 L18.0666431,13.0974764 L13.6492028,0.400511111 Z M44.5979917,11.4838931 L44.5186153,11.4838931 C44.2012028,12.0481819 43.6897694,12.5111333 42.9844083,12.8726542 C42.2790472,13.234175 41.4766292,13.4148889 40.5772472,13.4148889 C40.0659069,13.4148889 39.5324194,13.3487264 38.9769708,13.2164944 C38.4214292,13.0842625 37.9100889,12.8638139 37.4427639,12.5552417 C36.9754389,12.2465764 36.5874903,11.8410403 36.278825,11.3384472 C35.9702528,10.8358542 35.8159667,10.2142431 35.8159667,9.47352083 C35.8159667,8.52128333 36.0848972,7.76297361 36.6227583,7.19868472 C37.1606194,6.63439583 37.8527667,6.20233889 38.6992,5.90251389 C39.5456333,5.60278194 40.4846569,5.4043875 41.5163639,5.30733056 C42.5479778,5.21036667 43.5575375,5.16188472 44.5450431,5.16188472 L44.5450431,4.84447222 C44.5450431,4.05089444 44.258525,3.46455139 43.6853958,3.08544306 C43.1122667,2.70624167 42.4289597,2.5166875 41.6353819,2.5166875 C40.9652889,2.5166875 40.3216236,2.65775972 39.7043861,2.93990417 C39.0871486,3.22204861 38.5757153,3.56598194 38.1701792,3.97151806 L36.5301681,2.04052222 C37.2531167,1.37042917 38.0864292,0.867836111 39.0298264,0.532836111 C39.9733167,0.197743056 40.9299278,0.0302430556 41.8998458,0.0302430556 C43.0285167,0.0302430556 43.9587,0.188902778 44.6905819,0.506315278 C45.4223708,0.823727778 45.9999667,1.23819722 46.4231833,1.74963056 C46.8464,2.26097083 47.1417583,2.8341 47.3092583,3.468925 C47.4768514,4.10384306 47.5606014,4.73866806 47.5606014,5.37349306 L47.5606014,13.0974764 L44.5979917,13.0974764 L44.5979917,11.4838931 Z M44.5450431,7.30448889 L43.8308417,7.30448889 C43.3195014,7.30448889 42.7816403,7.32654306 42.2173514,7.37065139 C41.6529694,7.41475972 41.1327889,7.51172361 40.6566236,7.66163611 C40.1804583,7.81145556 39.7837625,8.02306389 39.46635,8.29646111 C39.1488444,8.56976528 38.9901847,8.9445 38.9901847,9.42066528 C38.9901847,9.72049028 39.0562542,9.97174028 39.1885792,10.1745083 C39.3208111,10.3773694 39.4927778,10.5404958 39.7043861,10.6638875 C39.9159944,10.7873722 40.1540306,10.8754958 40.4185875,10.9284444 C40.6830514,10.9813 40.9476083,11.0077278 41.2121653,11.0077278 C42.305475,11.0077278 43.1343208,10.7168361 43.6986097,10.1348667 C44.2628986,9.55289722 44.5450431,8.75931944 44.5450431,7.75422639 L44.5450431,7.30448889 Z M79.9906486,0.0302430556 C80.8194944,0.0302430556 81.5293222,0.175688889 82.1200389,0.466673611 C82.7108486,0.757658333 83.1957611,1.14123333 83.5749625,1.61730556 C83.9540708,2.09347083 84.2318417,2.64017222 84.4081819,3.25731667 C84.5845222,3.87455417 84.6726458,4.50937917 84.6726458,5.16188472 L84.6726458,13.0974764 L81.4984278,13.0974764 L81.4984278,6.06126667 C81.4984278,5.69090556 81.472,5.30295694 81.4190514,4.89732778 C81.3661958,4.49179167 81.2515514,4.12589722 81.0752111,3.79964444 C80.8988708,3.47339167 80.6563681,3.20446111 80.3477958,2.99285278 C80.0391306,2.78124444 79.6292208,2.67544028 79.1177875,2.67544028 C78.6240347,2.67544028 78.2008181,2.78124444 77.8480444,2.99285278 C77.4953639,3.20446111 77.2043792,3.47776528 76.9751833,3.81285833 C76.7458944,4.14785833 76.5783944,4.52259306 76.4725903,4.9370625 C76.3667861,5.35143889 76.3138375,5.76144167 76.3138375,6.16707083 L76.3138375,13.0974764 L73.1396194,13.0974764 L73.1396194,5.42644167 C73.1396194,4.63286389 72.9500653,3.97598472 72.5709569,3.45571111 C72.1917556,2.93553056 71.5965722,2.67544028 70.7854069,2.67544028 C70.3092417,2.67544028 69.8948653,2.77677778 69.5421847,2.97963889 C69.1895042,3.18240694 68.9028931,3.44249722 68.6824444,3.75990972 C68.4619958,4.07732222 68.2944958,4.44330972 68.1798514,4.85768611 C68.0653,5.2720625 68.0079778,5.69090556 68.0079778,6.11412222 L68.0079778,13.0974764 L64.8337597,13.0974764 L64.8337597,0.400511111 L67.849225,0.400511111 L67.849225,2.43731111 L67.9021736,2.43731111 C68.0432458,2.11989861 68.2328,1.82016667 68.4708361,1.53792917 C68.7089653,1.25578472 68.9911097,1.00016111 69.3173625,0.770872222 C69.6435222,0.541583333 70.0182569,0.360869444 70.4415667,0.2286375 C70.8647833,0.0963125 71.3321083,0.0302430556 71.8434486,0.0302430556 C72.8310472,0.0302430556 73.6510528,0.250598611 74.3035583,0.691495833 C74.9559708,1.13239306 75.4585639,1.71426944 75.8112444,2.43731111 C76.2345542,1.66141389 76.7988431,1.06623056 77.5042042,0.651854167 C78.2095653,0.237384722 79.0384111,0.0302430556 79.9906486,0.0302430556 Z M87.6352556,6.69609167 C87.6352556,5.69090556 87.8160625,4.77830972 88.1775833,3.95830417 C88.5391042,3.13829861 89.0284833,2.43731111 89.6456278,1.85543472 C90.2628653,1.27346528 90.9946542,0.823727778 91.8411806,0.506315278 C92.6876139,0.188902778 93.5869958,0.0302430556 94.5392333,0.0302430556 C95.4915639,0.0302430556 96.3908528,0.188902778 97.2373792,0.506315278 C98.0838125,0.823727778 98.8156944,1.27346528 99.4328389,1.85543472 C100.050076,2.43731111 100.539456,3.13829861 100.900976,3.95830417 C101.262497,4.77830972 101.443211,5.69090556 101.443211,6.69609167 C101.443211,7.70127778 101.262497,8.61824722 100.900976,9.44709306 C100.539456,10.2759389 100.050076,10.9857667 99.4328389,11.5764833 C98.8156944,12.1672931 98.0838125,12.6301514 97.2373792,12.9652444 C96.3908528,13.3002444 95.4915639,13.4678375 94.5392333,13.4678375 C93.5869958,13.4678375 92.6876139,13.3002444 91.8411806,12.9652444 C90.9946542,12.6301514 90.2628653,12.1672931 89.6456278,11.5764833 C89.0284833,10.9857667 88.5391042,10.2759389 88.1775833,9.44709306 C87.8160625,8.61824722 87.6352556,7.70127778 87.6352556,6.69609167 Z M90.8624222,6.69609167 C90.8624222,7.18984444 90.937425,7.68359722 91.0872444,8.17744306 C91.2371569,8.67119583 91.4619792,9.112 91.7618042,9.50004167 C92.0616292,9.88799028 92.4407375,10.2054028 92.8992222,10.4522792 C93.3577069,10.6991556 93.9044083,10.8226403 94.5392333,10.8226403 C95.1741514,10.8226403 95.7207597,10.6991556 96.1792444,10.4522792 C96.6378222,10.2054028 97.0169306,9.88799028 97.3167556,9.50004167 C97.6164875,9.112 97.8413097,8.67119583 97.9912222,8.17744306 C98.1411347,7.68359722 98.2160444,7.18984444 98.2160444,6.69609167 C98.2160444,6.20233889 98.1411347,5.71295972 97.9912222,5.22804722 C97.8413097,4.74304167 97.6164875,4.30661111 97.3167556,3.9186625 C97.0169306,3.53071389 96.6378222,3.217675 96.1792444,2.97963889 C95.7207597,2.74150972 95.1741514,2.62249167 94.5392333,2.62249167 C93.9044083,2.62249167 93.3577069,2.74150972 92.8992222,2.97963889 C92.4407375,3.217675 92.0616292,3.53071389 91.7618042,3.9186625 C91.4619792,4.30661111 91.2371569,4.74304167 91.0872444,5.22804722 C90.937425,5.71295972 90.8624222,6.20233889 90.8624222,6.69609167 Z" id="path-1"></path>
        <path d="M0.0422472222,19.74155 L20.4553792,2.80636944 C22.6415333,0.992716667 25.3928139,0 28.2334278,0 L34.1081181,0 L13.7092236,17.0126958 C11.5951875,18.7758194 8.92961111,19.74155 6.17684167,19.74155 L0.0422472222,19.74155 Z" id="path-3"></path>
    </defs>
    <g id="Page-1" stroke="none" stroke-width="1" fill="none" fill-rule="evenodd">
        <g id="awaymo-white">
            <g id="Group-3" transform="translate(0.000000, 6.234722)">
                <mask id="mask-2" fill="white">
                    <use xlink:href="#path-1"></use>
                </mask>
                <g id="Clip-2"></g>
                <polygon id="Fill-1" fill="#FFFFFF" mask="url(#mask-2)" points="0 19.4430278 101.449167 19.4430278 101.449167 0.0241944444 0 0.0241944444"></polygon>
            </g>
            <g id="Group-6" transform="translate(99.848611, 0.000000)">
                <mask id="mask-4" fill="white">
                    <use xlink:href="#path-3"></use>
                </mask>
                <g id="Clip-5"></g>
                <polygon id="Fill-4" fill="#FFFFFF" mask="url(#mask-4)" points="0.0372222222 19.74825 34.1178889 19.74825 34.1178889 -0.00558333333 0.0372222222 -0.00558333333"></polygon>
            </g>
        </g>
    </g>
</svg>